# xmcd
# 
# Track frame offsets:
#     150
#     17497
#     33270
#     53706
#     69639
#     83402
#     99270
#     115295
#     128960
#     144931
#     158763
#     175867
#     188871
#     204420
# 
# Disc length: 2933
# 
# Revision: 5
# Processed by: cddbd v1.5.2PL0 Copyright (c) Steve Scherf et al.
# Submitted via: fre:ac v1.0.31
# 
DISCID=ac0b730e
DTITLE=DJ Edelweiß and die Tiroler Alpenhosen - Alpenhose - Die härtesten Hüttenhits [CD 1)
DYEAR=2000
DGENRE=Rock
TTITLE0=Anton aus Tirol
TTITLE1=Großer Bruder
TTITLE2=American Pie
TTITLE3=One To Make Her Happy
TTITLE4=Leb ! ( der Big Brother Titelsong )
TTITLE5=Blue ( Da Ba Dee )
TTITLE6=Oops !...I Did it Again
TTITLE7=Ich vermiß dich ...( Wie die Hölle )
TTITLE8=Sex Bomb
TTITLE9=Fly Of The Wings Of Love
TTITLE10=China In Her Eyes
TTITLE11=Freestyler
TTITLE12=The Rigga - Ding Dong Song
TTITLE13=Around The World
EXTD=YEAR: 2000 ID3G:  17
EXTT0=
EXTT1=
EXTT2=
EXTT3=
EXTT4=
EXTT5=
EXTT6=
EXTT7=
EXTT8=
EXTT9=
EXTT10=
EXTT11=
EXTT12=
EXTT13=
PLAYORDER=
